<svg id="air" xmlns="http://www.w3.org/2000/svg" width="198.59" height="198.59" viewBox="0 0 198.59 198.59">
  <path id="Path_58" data-name="Path 58" d="M167.492,76.471H132.987l26.81-26.81-11.667-11.75-38.56,38.56H93.021V59.922l38.56-38.56L119.83,9.7l-26.81,26.81V2H76.471V36.505L49.662,9.7,37.912,21.363l38.56,38.56V76.471H59.922l-38.56-38.56L9.7,49.662l26.81,26.81H2V93.021H36.505L9.7,119.83l11.667,11.75,38.56-38.56H76.471V109.57l-38.56,38.56L49.662,159.8l26.81-26.81v34.505H93.021V132.987l26.81,26.81,11.75-11.667-38.56-38.56V93.021H109.57l38.56,38.56L159.8,119.83l-26.81-26.81h34.505Z" transform="translate(14.549 14.549)"/>
  <path id="Path_59" data-name="Path 59" d="M0,0H198.59V198.59H0Z" fill="none"/>
</svg>
