<svg id="earth" xmlns="http://www.w3.org/2000/svg" width="198.59" height="198.59" viewBox="0 0 198.59 198.59">
  <path id="Path_60" data-name="Path 60" d="M0,0H198.59V198.59H0Z" fill="none"/>
  <path id="Path_61" data-name="Path 61" d="M84.746,2a82.746,82.746,0,1,0,82.746,82.746A82.776,82.776,0,0,0,84.746,2ZM76.471,150.363A66.1,66.1,0,0,1,18.549,84.746a67.173,67.173,0,0,1,1.738-14.812L59.922,109.57v8.275a16.6,16.6,0,0,0,16.549,16.549Zm57.095-21.017a16.416,16.416,0,0,0-15.722-11.5H109.57V93.02a8.3,8.3,0,0,0-8.275-8.275H51.648V68.2H68.2a8.3,8.3,0,0,0,8.275-8.275V43.373H93.021A16.6,16.6,0,0,0,109.57,26.824V23.431a66.049,66.049,0,0,1,24,105.915Z" transform="translate(14.549 14.549)" fill="#71aa39"/>
</svg>
