<svg id="fire" xmlns="http://www.w3.org/2000/svg" width="198.59" height="198.59" viewBox="0 0 198.59 198.59">
  <path id="Path_62" data-name="Path 62" d="M82.609.67S88.732,22.6,88.732,40.388c0,17.046-11.171,30.864-28.216,30.864-17.128,0-30.037-13.819-30.037-30.864l.248-2.979A113.926,113.926,0,0,0,4,110.97a66.2,66.2,0,0,0,132.393,0C136.393,66.37,114.962,26.569,82.609.67ZM67.8,152.343c-14.729,0-26.644-11.584-26.644-25.982,0-13.4,8.688-22.838,23.252-25.817C79.051,97.565,94.193,90.532,102.633,79.2a115.457,115.457,0,0,1,4.882,33.429A39.728,39.728,0,0,1,67.8,152.343Z" transform="translate(29.098 4.874)" fill="#b92121"/>
  <path id="Path_63" data-name="Path 63" d="M0,0H198.59V198.59H0Z" fill="none"/>
</svg>
