<svg xmlns="http://www.w3.org/2000/svg" width="165.492" height="138.02" viewBox="0 0 165.492 138.02">
  <path id="water" d="M126.119,113.96c-11.171,0-18.2,3.475-24.41,6.62-5.378,2.731-9.764,4.965-16.963,4.965-7.447,0-11.584-2.069-16.963-4.965-6.206-3.144-12.991-6.62-24.41-6.62s-18.2,3.475-24.41,6.62c-5.378,2.731-9.681,4.965-16.963,4.965V141.68c11.171,0,18.2-3.475,24.41-6.62,5.378-2.731,9.681-4.965,16.963-4.965s11.584,2.069,16.963,4.965c6.206,3.144,12.991,6.62,24.41,6.62s18.2-3.475,24.41-6.62c5.378-2.731,9.764-4.965,16.963-4.965,7.447,0,11.584,2.069,16.963,4.965,6.206,3.144,13.074,6.62,24.41,6.62V125.545c-7.447,0-11.584-2.069-16.963-4.965C144.323,117.436,137.29,113.96,126.119,113.96Zm0-36.822c-11.171,0-18.2,3.558-24.41,6.62-5.378,2.648-9.764,4.965-16.963,4.965-7.447,0-11.584-2.069-16.963-4.965-6.206-3.144-12.991-6.62-24.41-6.62s-18.2,3.558-24.41,6.62C13.584,86.406,9.282,88.723,2,88.723v16.135c11.171,0,18.2-3.558,24.41-6.62,5.378-2.9,9.516-4.965,16.963-4.965s11.584,2.069,16.963,4.965c6.206,3.144,12.991,6.62,24.41,6.62s18.2-3.558,24.41-6.62c5.378-2.9,9.516-4.965,16.963-4.965s11.584,2.069,16.963,4.965c6.206,3.144,13.074,6.62,24.41,6.62V88.723c-7.447,0-11.584-2.069-16.963-4.965C144.323,80.614,137.29,77.138,126.119,77.138Zm24.41-66.859c-6.206-3.144-13.074-6.62-24.41-6.62s-18.2,3.475-24.41,6.62c-5.378,2.648-9.764,4.965-16.963,4.965-7.447,0-11.584-2.069-16.963-4.965-6.206-3.062-12.991-6.62-24.41-6.62s-18.2,3.475-24.41,6.62C13.584,13.01,9.282,15.244,2,15.244v15.97c11.171,0,18.2-3.558,24.41-6.62,5.378-2.731,9.681-4.965,16.963-4.965S54.957,21.7,60.336,24.595c6.206,3.144,12.991,6.62,24.41,6.62s18.2-3.558,24.41-6.62c5.378-2.648,9.764-4.965,16.963-4.965,7.447,0,11.584,2.069,16.963,4.965,6.206,3.144,13.074,6.62,24.41,6.62V15.079C160.045,15.079,155.907,13.01,150.529,10.28Zm-24.41,30.037c-11.171,0-18.2,3.558-24.41,6.62-5.378,2.9-9.516,4.965-16.963,4.965s-11.584-2.069-16.963-4.965c-6.206-3.144-12.991-6.62-24.41-6.62s-18.2,3.558-24.41,6.62C13.584,49.832,9.447,51.9,2,51.9V68.036c11.171,0,18.2-3.558,24.41-6.62,5.378-2.648,9.764-4.965,16.963-4.965s11.584,2.069,16.963,4.965c6.206,3.144,12.991,6.62,24.41,6.62s18.2-3.558,24.41-6.62c5.378-2.648,9.764-4.965,16.963-4.965,7.447,0,11.584,2.069,16.963,4.965,6.206,3.144,13.074,6.62,24.41,6.62V51.9c-7.447,0-11.584-2.069-16.963-4.965-6.206-3.144-13.239-6.62-24.41-6.62Z" transform="translate(-2 -3.66)" fill="#397eda"/>
</svg>
